<mxfile host="www.draw.io" modified="2019-11-28T08:58:55.606Z" agent="Mozilla/5.0 (Windows NT 6.1; Win64; x64) AppleWebKit/537.36 (KHTML, like Gecko) Chrome/74.0.3729.131 Safari/537.36" etag="yRagsixMXj_cKXYjQmUn" version="12.3.2" type="github" pages="1">
  <diagram id="8JtCcJnO_4OzBhPJUl-I" name="Page-1">
    <mxGraphModel dx="1408" dy="695" grid="1" gridSize="10" guides="1" tooltips="1" connect="1" arrows="1" fold="1" page="1" pageScale="1" pageWidth="827" pageHeight="1169" math="0" shadow="0">
      <root>
        <mxCell id="0"/>
        <mxCell id="1" parent="0"/>
        <mxCell id="0QbthuC8kXL6-Ch14Eif-4" value="ERP1" style="rounded=1;whiteSpace=wrap;html=1;" vertex="1" parent="1">
          <mxGeometry x="60" y="70" width="120" height="60" as="geometry"/>
        </mxCell>
        <mxCell id="0QbthuC8kXL6-Ch14Eif-5" value="ERP2" style="rounded=1;whiteSpace=wrap;html=1;" vertex="1" parent="1">
          <mxGeometry x="310" y="70" width="120" height="60" as="geometry"/>
        </mxCell>
        <mxCell id="0QbthuC8kXL6-Ch14Eif-6" value="ERP3" style="rounded=1;whiteSpace=wrap;html=1;" vertex="1" parent="1">
          <mxGeometry x="540" y="70" width="120" height="60" as="geometry"/>
        </mxCell>
        <mxCell id="0QbthuC8kXL6-Ch14Eif-9" value="" style="shape=flexArrow;endArrow=classic;html=1;" edge="1" parent="1">
          <mxGeometry width="50" height="50" relative="1" as="geometry">
            <mxPoint x="260" y="240" as="sourcePoint"/>
            <mxPoint x="260" y="320" as="targetPoint"/>
          </mxGeometry>
        </mxCell>
        <mxCell id="0QbthuC8kXL6-Ch14Eif-21" value="数据同步客户端" style="rounded=1;whiteSpace=wrap;html=1;fillColor=#d5e8d4;strokeColor=#82b366;" vertex="1" parent="1">
          <mxGeometry x="210" y="170" width="340" height="60" as="geometry"/>
        </mxCell>
        <mxCell id="0QbthuC8kXL6-Ch14Eif-23" value="" style="shape=flexArrow;endArrow=classic;html=1;" edge="1" parent="1">
          <mxGeometry width="50" height="50" relative="1" as="geometry">
            <mxPoint x="520" y="320" as="sourcePoint"/>
            <mxPoint x="520" y="240" as="targetPoint"/>
          </mxGeometry>
        </mxCell>
        <mxCell id="0QbthuC8kXL6-Ch14Eif-25" value="同步数据处理" style="text;html=1;strokeColor=none;fillColor=none;align=center;verticalAlign=middle;whiteSpace=wrap;rounded=0;" vertex="1" parent="1">
          <mxGeometry x="10" y="350" width="90" height="20" as="geometry"/>
        </mxCell>
        <mxCell id="0QbthuC8kXL6-Ch14Eif-42" value="数据接收队列" style="rounded=1;whiteSpace=wrap;html=1;" vertex="1" parent="1">
          <mxGeometry x="250" y="600" width="190" height="60" as="geometry"/>
        </mxCell>
        <mxCell id="0QbthuC8kXL6-Ch14Eif-43" value="" style="endArrow=none;html=1;" edge="1" parent="1">
          <mxGeometry width="50" height="50" relative="1" as="geometry">
            <mxPoint x="20" y="150" as="sourcePoint"/>
            <mxPoint x="770" y="150" as="targetPoint"/>
          </mxGeometry>
        </mxCell>
        <mxCell id="0QbthuC8kXL6-Ch14Eif-48" value="数据处理" style="shape=trapezoid;perimeter=trapezoidPerimeter;whiteSpace=wrap;html=1;" vertex="1" parent="1">
          <mxGeometry x="180" y="690" width="120" height="60" as="geometry"/>
        </mxCell>
        <mxCell id="0QbthuC8kXL6-Ch14Eif-49" value="数据处理" style="shape=trapezoid;perimeter=trapezoidPerimeter;whiteSpace=wrap;html=1;" vertex="1" parent="1">
          <mxGeometry x="413" y="690" width="120" height="60" as="geometry"/>
        </mxCell>
        <mxCell id="0QbthuC8kXL6-Ch14Eif-26" value="列队" style="shape=cylinder;whiteSpace=wrap;html=1;boundedLbl=1;backgroundOutline=1;" vertex="1" parent="1">
          <mxGeometry x="300" y="350" width="80" height="100" as="geometry"/>
        </mxCell>
        <mxCell id="0QbthuC8kXL6-Ch14Eif-27" value="数据接收接口" style="ellipse;shape=cloud;whiteSpace=wrap;html=1;" vertex="1" parent="1">
          <mxGeometry x="90" y="360" width="120" height="80" as="geometry"/>
        </mxCell>
        <mxCell id="0QbthuC8kXL6-Ch14Eif-41" value="" style="endArrow=classic;html=1;entryX=0;entryY=0.5;entryDx=0;entryDy=0;" edge="1" parent="1" source="0QbthuC8kXL6-Ch14Eif-27" target="0QbthuC8kXL6-Ch14Eif-26">
          <mxGeometry width="50" height="50" relative="1" as="geometry">
            <mxPoint x="60" y="580" as="sourcePoint"/>
            <mxPoint x="110" y="530" as="targetPoint"/>
          </mxGeometry>
        </mxCell>
        <mxCell id="0QbthuC8kXL6-Ch14Eif-54" value="" style="endArrow=none;html=1;" edge="1" parent="1">
          <mxGeometry width="50" height="50" relative="1" as="geometry">
            <mxPoint x="20" y="340" as="sourcePoint"/>
            <mxPoint x="770" y="340" as="targetPoint"/>
          </mxGeometry>
        </mxCell>
        <mxCell id="0QbthuC8kXL6-Ch14Eif-55" value="" style="endArrow=none;html=1;" edge="1" parent="1">
          <mxGeometry width="50" height="50" relative="1" as="geometry">
            <mxPoint x="10" y="530" as="sourcePoint"/>
            <mxPoint x="770" y="530" as="targetPoint"/>
          </mxGeometry>
        </mxCell>
      </root>
    </mxGraphModel>
  </diagram>
</mxfile>
